<svg id="Layer_1" data-name="Layer 1" xmlns="http://www.w3.org/2000/svg" viewBox="0 0 147 110"><defs><style>.cls-1,.cls-3{fill:none;stroke-miterlimit:10;}.cls-1,.cls-2,.cls-3{stroke:#000;}.cls-1,.cls-2{stroke-width:4px;}.cls-2{font-size:60px;stroke-linejoin:round;font-family:Roboto-Thin, Roboto;font-weight:200;}.cls-2,.cls-3{stroke-linecap:round;}.cls-3{stroke-width:5px;}</style></defs><title>code-icon</title><path d="M374.39,245a5.11,5.11,0,0,1,5.11,5.11v91.78a5.11,5.11,0,0,1-5.11,5.11H245.61a5.11,5.11,0,0,1-5.11-5.11V250.11a5.11,5.11,0,0,1,5.11-5.11H374.39m0-4H245.61a9.11,9.11,0,0,0-9.11,9.11v91.78a9.11,9.11,0,0,0,9.11,9.11H374.39a9.11,9.11,0,0,0,9.11-9.11V250.11a9.11,9.11,0,0,0-9.11-9.11Z" transform="translate(-236.5 -241)"/><line class="cls-1" y1="16.5" x2="145.04" y2="16.5"/><circle cx="14.5" cy="9.5" r="2.5"/><circle cx="21.5" cy="9.5" r="2.5"/><circle cx="28.5" cy="9.5" r="2.5"/><text class="cls-2" transform="translate(28.75 76.54) scale(0.97 1)">&lt;</text><text class="cls-2" transform="translate(88.46 76.53) scale(0.97 1)">&gt;</text><line class="cls-3" x1="85.9" y1="29.8" x2="63.68" y2="80.8"/></svg>