<svg id="Layer_1" data-name="Layer 1" xmlns="http://www.w3.org/2000/svg" viewBox="0 0 155.26 155.74"><defs><style>.cls-1{fill:none;stroke:#000;stroke-miterlimit:10;stroke-width:4px;}</style></defs><title>UXUI-icon</title><path d="M1134.77,356.11a26.37,26.37,0,0,1,14.41,23.59V419H1073V379.7a26.37,26.37,0,0,1,14.41-23.59,36.84,36.84,0,0,0,47.36,0m-.74-4.72a32.84,32.84,0,0,1-45.88,0A30.51,30.51,0,0,0,1069,379.7V423h84.18V379.7A30.51,30.51,0,0,0,1134,351.39Z" transform="translate(-1037.75 -267.26)"/><path d="M1111.09,301a28.87,28.87,0,1,1-28.86,28.86A28.89,28.89,0,0,1,1111.09,301m0-4A32.87,32.87,0,1,0,1144,329.86,32.86,32.86,0,0,0,1111.09,297Z" transform="translate(-1037.75 -267.26)"/><path class="cls-1" d="M1128,303.07c-3.45,4.28-8.52,10.38-18.26,15-12.9,6.12-23.14,5.59-29.21,5.77" transform="translate(-1037.75 -267.26)"/><path d="M1173.33,319.77q-2.52-4.5,1.43-6a20.66,20.66,0,0,1,3.91-1.39c2.63-.62,6.36-.86,8.46,1.32,4.22,4.37-2.56,9.71-5.12,12.86-3.46,4.25-5.38,9.45-2.6,14.55,1.38,2.55,5.27.28,3.88-2.27-4.14-7.62,8.56-13.55,9.63-20.79.82-5.56-3.83-9.87-9.08-10.52-5.51-.69-13.66,1.65-16.13,7.17a6.57,6.57,0,0,0,5.62,9.54c2.88.23,2.87-4.28,0-4.5Z" transform="translate(-1037.75 -267.26)"/><path d="M1181.84,352h.45a2.25,2.25,0,0,0,0-4.5h-.45a2.25,2.25,0,0,0,0,4.5Z" transform="translate(-1037.75 -267.26)"/><path d="M1144.4,275.49a5,5,0,0,1,3.8-3.37,8.67,8.67,0,0,1,2.85-.37,13.34,13.34,0,0,1,5.26,1c3,1.22,5.15,2.72,2.52,6.51-.94,1.34-2.78,2.18-4,3.19-3.87,3.12-6.35,7-5.25,12,.61,2.83,5,1.64,4.34-1.19-1.58-7.27,9.82-9,10.82-15.68.78-5.33-4.34-8.58-8.83-9.75-4.92-1.28-11.29-.72-14.69,3.56-2.82,3.55-1.25,8,3.21,8.57,2.86.38,2.83-4.13,0-4.5Z" transform="translate(-1037.75 -267.26)"/><path d="M1151.48,304.54h.44a2.25,2.25,0,0,0,0-4.5h-.44a2.25,2.25,0,0,0,0,4.5Z" transform="translate(-1037.75 -267.26)"/><path d="M1040.56,337.3a24.3,24.3,0,0,0,12-6.81l-3.76-2.19-4,15.61c-1.18,4.55-3.31,9.68-3.63,14.36-.51,7.45,7.6,3.28,10.34.16,1.91-2.17-1.26-5.36-3.18-3.18-.39.44-2.35,2.72-2.86,2.48.54.25,1.22-3.15,1.3-3.45l2.13-8.26,4.26-16.52a2.27,2.27,0,0,0-3.76-2.19,20,20,0,0,1-10,5.65c-2.81.67-1.62,5,1.2,4.34Z" transform="translate(-1037.75 -267.26)"/><path d="M1050.9,318.33l-.05.08.81-.81q2.64-1,2.53,2.61l-.81.81c-1.59.63-2.49-.08-2.7-2.15a2.27,2.27,0,0,0,1.57,2.77,2.3,2.3,0,0,0,2.77-1.57,2.62,2.62,0,0,0-1.78-3.19,2.51,2.51,0,0,0-3.1,1.4,2.57,2.57,0,0,0,1.12,3.23,2.57,2.57,0,0,0,3.53-.91,2.25,2.25,0,0,0-.81-3.07,2.31,2.31,0,0,0-3.08.8Z" transform="translate(-1037.75 -267.26)"/></svg>